<svg xmlns="http://www.w3.org/2000/svg" xmlns:xlink="http://www.w3.org/1999/xlink" width="154.69" height="31.249" viewBox="0 0 154.69 31.249">
  <defs>
    <clipPath id="clip-path">
      <rect id="Rectangle_53" data-name="Rectangle 53" width="154.69" height="31.249" fill="#0d6efd"/>
    </clipPath>
  </defs>
  <g id="Group_869" data-name="Group 869" transform="translate(4 0)">
    <g id="Group_868" data-name="Group 868" transform="translate(-4 0)" clip-path="url(#clip-path)">
      <path id="Path_3228" data-name="Path 3228" d="M74.408,20.728c-2.783,0-4.63,1.707-4.63,4.3v7.624c0,2.6,1.848,4.3,4.63,4.3,2.76,0,4.584-1.707,4.584-4.3V31.416H77.566v1.192a3.173,3.173,0,0,1-6.338,0v-7.53a3.173,3.173,0,0,1,6.338,0v1.193h1.427v-1.24c0-2.6-1.825-4.3-4.584-4.3" transform="translate(-37.141 -11.033)" fill="#0d6efd"/>
      <path id="Path_3229" data-name="Path 3229" d="M98.1,20.729c-2.83,0-4.724,1.754-4.724,4.42V32.54c0,2.666,1.895,4.42,4.724,4.42s4.678-1.754,4.678-4.42V25.149c0-2.666-1.848-4.42-4.678-4.42m3.251,11.764a3.265,3.265,0,0,1-6.525,0V25.2a3.265,3.265,0,0,1,6.525,0Z" transform="translate(-49.702 -11.034)" fill="#0d6efd"/>
      <path id="Path_3230" data-name="Path 3230" d="M126.253,33.513l.094.983h-.141l-5.8-13.168h-1.777V37h1.427V24.812l-.094-.982h.14L125.9,37h1.777V21.328h-1.427Z" transform="translate(-63.143 -11.352)" fill="#0d6efd"/>
      <path id="Path_3231" data-name="Path 3231" d="M150.768,21.328h-8.84v1.333h3.719V37h1.427V22.661h3.7Z" transform="translate(-75.545 -11.352)" fill="#0d6efd"/>
      <path id="Path_3232" data-name="Path 3232" d="M164.634,21.328,160.378,37h1.543L163,32.741h5.216l1.1,4.256h1.614l-4.28-15.67Zm-1.286,10.1,2.2-8.677h.117l2.222,8.677Z" transform="translate(-85.365 -11.352)" fill="#0d6efd"/>
      <path id="Path_3233" data-name="Path 3233" d="M189.658,20.728c-2.783,0-4.63,1.707-4.63,4.3v7.624c0,2.6,1.848,4.3,4.63,4.3,2.76,0,4.584-1.707,4.584-4.3V31.416h-1.427v1.192a3.173,3.173,0,0,1-6.338,0v-7.53a3.173,3.173,0,0,1,6.338,0v1.193h1.427v-1.24c0-2.6-1.825-4.3-4.584-4.3" transform="translate(-98.486 -11.033)" fill="#0d6efd"/>
      <path id="Path_3234" data-name="Path 3234" d="M206.478,22.661H210.2V37h1.427V22.661h3.695V21.328h-8.84Z" transform="translate(-109.903 -11.352)" fill="#0d6efd"/>
      <path id="Path_3235" data-name="Path 3235" d="M243.4,29.117v-.188c1.239-.28,2.129-1.614,2.129-3.531a3.843,3.843,0,0,0-4.07-4.07h-5.426V37h5.8a3.872,3.872,0,0,0,4.069-4.093c0-2.035-.982-3.461-2.5-3.789m-4.163-5.006h1.31a1.733,1.733,0,0,1,1.777,1.871,1.706,1.706,0,0,1-1.777,1.824h-1.31Zm1.684,10.1h-1.684V30.356h1.684a1.746,1.746,0,0,1,1.777,1.918,1.778,1.778,0,0,1-1.777,1.941" transform="translate(-125.632 -11.352)" fill="#0d6efd"/>
      <path id="Path_3236" data-name="Path 3236" d="M263.847,20.728c-3.111,0-5.169,1.918-5.169,4.818v6.595c0,2.9,2.058,4.818,5.169,4.818,3.134,0,5.169-1.918,5.169-4.818V25.546c0-2.9-2.035-4.818-5.169-4.818m1.964,11.343a1.953,1.953,0,0,1-3.906,0V25.616a1.953,1.953,0,0,1,3.906,0Z" transform="translate(-137.688 -11.033)" fill="#0d6efd"/>
      <path id="Path_3237" data-name="Path 3237" d="M288.4,20.728c-3.111,0-5.169,1.918-5.169,4.818v6.595c0,2.9,2.058,4.818,5.169,4.818,3.134,0,5.169-1.918,5.169-4.818V25.546c0-2.9-2.035-4.818-5.169-4.818m1.964,11.343a1.953,1.953,0,0,1-3.906,0V25.616a1.953,1.953,0,0,1,3.906,0Z" transform="translate(-150.755 -11.033)" fill="#0d6efd"/>
      <path id="Path_3238" data-name="Path 3238" d="M314.965,28.181l3.929-6.853h-3.672l-3.2,6.549h-.187V21.328h-3.2V37h3.2V32.063l.982-1.052L315.176,37h3.789Z" transform="translate(-164.275 -11.353)" fill="#0d6efd"/>
      <path id="Path_3239" data-name="Path 3239" d="M22.4,3.674a.726.726,0,0,0,0-1.452H8.847V.713A.636.636,0,0,0,8.839.632.7.7,0,0,0,8.825.551L8.81.5A.643.643,0,0,0,8.782.428L8.712.307A.641.641,0,0,0,8.661.244L8.621.2C8.6.186,8.588.173,8.565.154S8.529.127,8.51.114L8.454.083A.683.683,0,0,0,8.386.051C8.367.044,8.347.038,8.31.027A.57.57,0,0,0,8.248.012L8.1,0c-.021,0-.043,0-.079.007s-.045.006-.081.014L6.151.471,4.344.02A.712.712,0,0,0,4.26.007C4.239,0,4.218,0,4.181,0L4.132,0a.668.668,0,0,0-.081.008c-.02,0-.039.009-.07.017s-.044.013-.065.021L3.791.115a.675.675,0,0,0-.059.043L3.682.2a.665.665,0,0,0-.051.055.578.578,0,0,0-.042.052l-.07.122A.629.629,0,0,0,3.493.5L3.474.563A.855.855,0,0,0,3.46.652L3.454,2.285A4.177,4.177,0,0,0,0,6.395c0,.081,0,.161.007.228V19.694A11.559,11.559,0,0,0,19.74,27.863a11.488,11.488,0,0,0,3.383-8.179l0-9.843a.727.727,0,0,0-.726-.727H22.14V3.674Zm-13.551,0h11.84V5.668H8.847ZM8.545.479h0ZM8.485.4ZM8.245.252h0ZM8.053.241ZM6.223,1.706ZM4.907,1.657l1.067.267L6.031,1.7h0l.013.24a.75.75,0,0,0,.212,0l1.138-.281V5.668H4.907ZM4.043.256ZM3.955.291Zm-.2.2Zm-.3,3.279v1.9H3.431a.726.726,0,1,0,0,1.453H20.687V9.115H4.173A2.722,2.722,0,0,1,1.459,6.587V6.395a.147.147,0,0,0-.006-.051,2.72,2.72,0,0,1,2-2.573M11.566,29.8A10.12,10.12,0,0,1,1.459,19.685V9.561a4.172,4.172,0,0,0,2.714,1.007h17.5v9.125A10.119,10.119,0,0,1,11.566,29.8" transform="translate(0 0)" fill="#0d6efd"/>
      <path id="Path_3240" data-name="Path 3240" d="M21.967,32.122H18.52a1.713,1.713,0,0,0-1.7,1.478H15.291a1.713,1.713,0,0,0-1.7-1.478H10.149a1.713,1.713,0,0,0-1.711,1.711V35.31a1.713,1.713,0,0,0,1.711,1.711H13.6a1.713,1.713,0,0,0,1.711-1.711v-.259h1.5v.259a1.713,1.713,0,0,0,1.711,1.711h3.447a1.713,1.713,0,0,0,1.711-1.711V33.833a1.713,1.713,0,0,0-1.711-1.711M13.855,35.31a.259.259,0,0,1-.259.259H10.149a.259.259,0,0,1-.259-.259V33.833a.259.259,0,0,1,.259-.259H13.6a.259.259,0,0,1,.259.259Zm8.371,0a.259.259,0,0,1-.259.259H18.52a.259.259,0,0,1-.259-.259V33.833a.259.259,0,0,1,.259-.259h3.447a.259.259,0,0,1,.259.259Z" transform="translate(-4.491 -17.098)" fill="#0d6efd"/>
      <path id="Path_3241" data-name="Path 3241" d="M23.563,50.019a.727.727,0,0,0-.726.726.259.259,0,0,1-.258.258H19.623a.259.259,0,0,1-.259-.258.726.726,0,1,0-1.453,0,1.713,1.713,0,0,0,1.711,1.711h2.955a1.713,1.713,0,0,0,1.711-1.711.727.727,0,0,0-.726-.726" transform="translate(-9.534 -26.624)" fill="#0d6efd"/>
    </g>
  </g>
</svg>
