<?xml version="1.0" encoding="utf-8"?>
<!-- Generator: Adobe Illustrator 26.2.1, SVG Export Plug-In . SVG Version: 6.00 Build 0)  -->
<svg version="1.1" id="Layer_1" xmlns="http://www.w3.org/2000/svg" xmlns:xlink="http://www.w3.org/1999/xlink" x="0px" y="0px"
	 viewBox="0 0 324.2 65.5" style="enable-background:new 0 0 324.2 65.5;" xml:space="preserve">
<style type="text/css">
	.st0{clip-path:url(#SVGID_00000060746752308734904390000000999659996633015964_);}
	.st1{fill:#0D6EFD;}
</style>
<g id="Group_979" transform="translate(0 0)">
	<g>
		<defs>
			<rect id="SVGID_1_" width="324.2" height="65.5"/>
		</defs>
		<clipPath id="SVGID_00000090256133195005053990000001188768853211436699_">
			<use xlink:href="#SVGID_1_"  style="overflow:visible;"/>
		</clipPath>
		
			<g id="Group_978" transform="translate(0 0)" style="clip-path:url(#SVGID_00000090256133195005053990000001188768853211436699_);">
			<path id="Path_37974" class="st1" d="M78.1,20.3c-5.8,0-9.7,3.6-9.7,9v16c0,5.4,3.9,9,9.7,9c5.8,0,9.6-3.6,9.6-9v-2.6h-3v2.5
				c-0.2,3.7-3.3,6.5-7,6.3c-3.4-0.2-6.1-2.9-6.3-6.3V29.4c0.2-3.7,3.3-6.5,7-6.3c3.4,0.2,6.1,2.9,6.3,6.3v2.5h3v-2.6
				C87.7,23.9,83.9,20.3,78.1,20.3"/>
			<path id="Path_37975" class="st1" d="M101.4,20.3c-5.9,0-9.9,3.7-9.9,9.3v15.5c0,5.6,4,9.3,9.9,9.3s9.8-3.7,9.8-9.3V29.6
				C111.2,24,107.4,20.3,101.4,20.3 M108.2,45c-0.2,3.8-3.3,6.7-7.1,6.6c-3.6-0.1-6.4-3-6.6-6.6V29.7c0.2-3.8,3.3-6.7,7.1-6.6
				c3.6,0.1,6.4,3,6.6,6.6V45z"/>
			<path id="Path_37976" class="st1" d="M132.3,46.4l0.2,2.1h-0.3L120,20.9h-3.7v32.8h3V28.2l-0.2-2.1h0.3l12.2,27.6h3.7V20.9h-3
				V46.4z"/>
			<path id="Path_37977" class="st1" d="M157.7,20.9h-18.5v2.8h7.8v30h3v-30h7.7L157.7,20.9z"/>
			<path id="Path_37978" class="st1" d="M166.1,20.9l-8.9,32.8h3.2l2.3-8.9h10.9l2.3,8.9h3.4l-9-32.8H166.1z M163.4,42.1l4.6-18.2
				h0.2l4.7,18.2H163.4z"/>
			<path id="Path_37979" class="st1" d="M191.1,20.3c-5.8,0-9.7,3.6-9.7,9v16c0,5.4,3.9,9,9.7,9c5.8,0,9.6-3.6,9.6-9v-2.6h-3v2.5
				c-0.2,3.7-3.3,6.5-7,6.3c-3.4-0.2-6.1-2.9-6.3-6.3V29.4c0.2-3.7,3.3-6.5,7-6.3c3.4,0.2,6.1,2.9,6.3,6.3v2.5h3v-2.6
				C200.7,23.9,196.9,20.3,191.1,20.3"/>
			<path id="Path_37980" class="st1" d="M202.4,23.7h7.8v30h3v-30h7.7v-2.8h-18.5L202.4,23.7z"/>
			<path id="Path_37981" class="st1" d="M246.8,37.2v-0.4c2.6-0.6,4.5-3.4,4.5-7.4c0.3-4.4-3.1-8.3-7.5-8.5c-0.3,0-0.7,0-1,0h-11.4
				v32.8h12.2c4.5,0.2,8.3-3.2,8.5-7.7c0-0.3,0-0.6,0-0.9C252.1,40.9,250,37.9,246.8,37.2 M238.1,26.7h2.7c2-0.1,3.7,1.5,3.7,3.5
				c0,0.1,0,0.3,0,0.4c0.1,2-1.3,3.7-3.3,3.8c-0.1,0-0.3,0-0.4,0h-2.7L238.1,26.7z M241.6,47.9h-3.5v-8.1h3.5c2,0,3.7,1.5,3.7,3.6
				c0,0.2,0,0.3,0,0.5c0.2,2-1.3,3.9-3.4,4.1C241.9,47.9,241.7,47.9,241.6,47.9"/>
			<path id="Path_37982" class="st1" d="M264.4,20.3c-6.5,0-10.8,4-10.8,10.1v13.8c0,6.1,4.3,10.1,10.8,10.1c6.6,0,10.8-4,10.8-10.1
				V30.4C275.2,24.3,271,20.3,264.4,20.3 M268.5,44.1c0,2.3-1.8,4.1-4.1,4.1c-2.3,0-4.1-1.8-4.1-4.1V30.6c0-2.3,1.8-4.1,4.1-4.1
				c2.3,0,4.1,1.8,4.1,4.1V44.1z"/>
			<path id="Path_37983" class="st1" d="M288.5,20.3c-6.5,0-10.8,4-10.8,10.1v13.8c0,6.1,4.3,10.1,10.8,10.1c6.6,0,10.8-4,10.8-10.1
				V30.4C299.3,24.3,295,20.3,288.5,20.3 M292.6,44.1c0,2.3-1.8,4.1-4.1,4.1c-2.3,0-4.1-1.8-4.1-4.1V30.6c0-2.3,1.8-4.1,4.1-4.1
				c2.3,0,4.1,1.8,4.1,4.1V44.1z"/>
			<path id="Path_37984" class="st1" d="M315.8,35.3l8.2-14.4h-7.7l-6.7,13.7h-0.4V20.9h-6.7v32.8h6.7V43.4l2.1-2.2l5,12.5h7.9
				L315.8,35.3z"/>
			<path id="Path_37985" class="st1" d="M46.9,7.7c0.8,0,1.5-0.7,1.5-1.6c0-0.8-0.7-1.4-1.5-1.5H18.5V1.5c0-0.1,0-0.1,0-0.2
				c0-0.1,0-0.1,0-0.2l0-0.1c0-0.1,0-0.1-0.1-0.2l-0.1-0.3c0,0-0.1-0.1-0.1-0.1l-0.1-0.1c0,0-0.1-0.1-0.1-0.1c0,0-0.1-0.1-0.1-0.1
				l-0.1-0.1c0,0-0.1,0-0.1-0.1c0,0-0.1,0-0.2,0c0,0-0.1,0-0.1,0L17,0c0,0-0.1,0-0.2,0c-0.1,0-0.1,0-0.2,0L12.9,1L9.1,0
				C9,0,9,0,8.9,0c0,0-0.1,0-0.2,0H8.7C8.6,0,8.5,0,8.5,0c0,0-0.1,0-0.1,0s-0.1,0-0.1,0L7.9,0.2c0,0-0.1,0.1-0.1,0.1L7.7,0.4
				c0,0-0.1,0.1-0.1,0.1c0,0-0.1,0.1-0.1,0.1L7.4,0.9c0,0,0,0.1-0.1,0.2l0,0.1c0,0.1,0,0.1,0,0.2l0,3.4C3.1,5.5,0,9.2,0,13.4
				c0,0.2,0,0.3,0,0.5v27.4c0,13.4,10.9,24.2,24.2,24.2c6.4,0,12.6-2.6,17.1-7.1c4.6-4.5,7.1-10.7,7.1-17.1V20.6
				c0-0.8-0.7-1.5-1.5-1.5h-0.5V7.7H46.9z M18.5,7.7h24.8v4.2H18.5V7.7z M17.9,1L17.9,1z M17.3,0.5L17.3,0.5z M10.3,3.5L12.5,4
				l0.1-0.5l0,0l0,0.5c0.1,0,0.3,0,0.4,0l2.4-0.6v8.4h-5.2V3.5z M7.2,7.9v4h0c-0.8,0-1.5,0.7-1.5,1.5c0,0.8,0.7,1.5,1.5,1.5h36.2
				v4.2H8.7c-3,0-5.5-2.3-5.7-5.3v-0.4c0,0,0-0.1,0-0.1C3.1,10.8,4.8,8.6,7.2,7.9 M24.2,62.5C12.5,62.4,3.1,53,3.1,41.3V20
				c1.6,1.4,3.6,2.1,5.7,2.1h36.7v19.1C45.4,53,35.9,62.4,24.2,62.5"/>
			<path id="Path_37986" class="st1" d="M36.6,31.5h-7.2c-1.8,0-3.3,1.3-3.6,3.1h-3.2c-0.2-1.8-1.8-3.1-3.6-3.1h-7.2
				c-2,0-3.6,1.6-3.6,3.6v3.1c0,2,1.6,3.6,3.6,3.6h7.2c2,0,3.6-1.6,3.6-3.6v-0.5h3.1v0.5c0,2,1.6,3.6,3.6,3.6h7.2
				c2,0,3.6-1.6,3.6-3.6v-3.1C40.2,33.1,38.6,31.5,36.6,31.5 M19.6,38.2c0,0.3-0.2,0.5-0.5,0.5h0h-7.2c-0.3,0-0.5-0.2-0.5-0.5l0,0
				v-3.1c0-0.3,0.2-0.5,0.5-0.5h0h7.2c0.3,0,0.5,0.2,0.5,0.5l0,0V38.2z M37.2,38.2c0,0.3-0.2,0.5-0.5,0.5c0,0,0,0,0,0h-7.2
				c-0.3,0-0.5-0.2-0.5-0.5l0,0v-3.1c0-0.3,0.2-0.5,0.5-0.5c0,0,0,0,0,0h7.2c0.3,0,0.5,0.2,0.5,0.5l0,0V38.2z"/>
			<path id="Path_37987" class="st1" d="M29.4,49c-0.8,0-1.5,0.7-1.5,1.5c0,0.3-0.2,0.5-0.5,0.5h-6.2c-0.3,0-0.5-0.2-0.5-0.5
				c0-0.8-0.7-1.5-1.5-1.5c-0.8,0-1.5,0.7-1.5,1.5c0,2,1.6,3.6,3.6,3.6h6.2c2,0,3.6-1.6,3.6-3.6C30.9,49.7,30.2,49,29.4,49"/>
		</g>
	</g>
</g>
</svg>
